<?xml version="1.0" encoding="UTF-8"?>
<svg version="1.1" xmlns="http://www.w3.org/2000/svg" width="789" height="228">
<path d="M0 0 C19.71153727 15.42442827 30.41226541 38.00655806 33.5859375 62.55859375 C34.67022634 77.23089617 33.96534579 91.48433796 29.5859375 105.55859375 C29.38226563 106.21553223 29.17859375 106.8724707 28.96875 107.54931641 C21.09814838 132.0052676 6.84434727 154.10557043 -8.4140625 174.55859375 C-9.02048584 175.37336182 -9.02048584 175.37336182 -9.63916016 176.20458984 C-33.26882669 207.79510321 -33.26882669 207.79510321 -43.4140625 214.55859375 C-49.99832477 208.17486739 -56.31523579 201.76716393 -62.0234375 194.5703125 C-63.77928702 192.35828639 -65.55488453 190.18032021 -67.3671875 188.015625 C-88.33881082 162.85803609 -107.32594545 134.33122343 -116.4140625 102.55859375 C-116.72085938 101.49640625 -117.02765625 100.43421875 -117.34375 99.33984375 C-124.01760938 73.66137527 -119.86981924 46.34839167 -106.80078125 23.44140625 C-96.15568591 5.66353471 -79.54666916 -7.32147611 -59.4140625 -12.44140625 C-38.86412451 -16.80495119 -16.91834348 -12.49705521 0 0 Z " fill="#221651" transform="translate(120.4140625,13.44140625)"/>
<path d="M0 0 C5.98331474 4.66050284 10.9197224 9.6075651 15 16 C15.38929688 15.443125 15.77859375 14.88625 16.1796875 14.3125 C25.18608391 2.02727724 36.92313043 -5.55879506 52 -8 C55.27702037 -8.27966038 58.52466795 -8.33480335 61.8125 -8.3125 C62.6883374 -8.30686035 63.5641748 -8.3012207 64.46655273 -8.29541016 C79.54390917 -8.01405902 91.6977547 -2.95136519 102.70703125 7.4453125 C112.60815417 18.47654656 116.17694201 31.47908466 116.11352539 45.94287109 C116.11367142 46.8215686 116.11381744 47.70026611 116.1139679 48.60559082 C116.11327413 51.49489861 116.1055069 54.38414104 116.09765625 57.2734375 C116.09579017 59.28268397 116.09436716 61.29193089 116.09336853 63.30117798 C116.08955836 68.57832098 116.0797409 73.85543627 116.06866455 79.13256836 C116.05841816 84.52196884 116.053864 89.91137382 116.04882812 95.30078125 C116.03811726 105.86720161 116.02053263 116.43359416 116 127 C106.76 127 97.52 127 88 127 C87.97812622 123.30707764 87.97812622 123.30707764 87.95581055 119.53955078 C87.90532326 111.37709397 87.83870363 103.2148251 87.76428509 95.05255318 C87.71968446 90.10699235 87.68040591 85.16151194 87.65356445 80.21582031 C87.62742829 75.4370049 87.58695379 70.6585007 87.53681374 65.879879 C87.52021448 64.06281297 87.50865721 62.24569319 87.50238609 60.42856216 C87.45318181 47.47386637 87.27600631 35.10525428 78 25 C68.31418093 17.71650888 58.7904408 16.94472608 47 18 C41.02226643 19.37316227 34.86870316 22.07918493 31 27 C26.17808763 35.27099792 23.86575735 41.64223555 23.79467773 51.16503906 C23.78477814 51.9849231 23.77487854 52.80480713 23.76467896 53.64953613 C23.73313517 56.35486989 23.70833471 59.06022119 23.68359375 61.765625 C23.66301807 63.64321342 23.64202144 65.52079727 23.62062073 67.39837646 C23.56546345 72.3368357 23.5160262 77.2753363 23.46777344 82.21386719 C23.41751208 87.25459468 23.36185021 92.29526221 23.30664062 97.3359375 C23.19913663 107.22390898 23.09817358 117.11193148 23 127 C13.76 127 4.52 127 -5 127 C-5.029729 123.5954248 -5.029729 123.5954248 -5.06005859 120.12207031 C-5.1272776 112.58231353 -5.2049105 105.04268907 -5.28752708 97.50308609 C-5.33725213 92.93649521 -5.38358217 88.36992484 -5.421875 83.80322266 C-5.45903098 79.38754887 -5.50546854 74.97205736 -5.55806351 70.55654144 C-5.57644784 68.88067608 -5.59161315 67.20477189 -5.60334396 65.52884674 C-5.45281222 44.32906315 -5.45281222 44.32906315 -14.82421875 25.9296875 C-21.64631537 19.52308203 -28.69799836 17.43742894 -37.9375 17.5625 C-38.72946777 17.57079834 -39.52143555 17.57909668 -40.33740234 17.58764648 C-49.51653081 17.85339294 -55.57330179 20.82172335 -62.27734375 27.0859375 C-69.019853 34.57761444 -70.28988599 44.73648418 -70.31884766 54.45727539 C-70.32889328 55.24862885 -70.3389389 56.0399823 -70.34928894 56.85531616 C-70.37984853 59.43608969 -70.39707929 62.01676085 -70.4140625 64.59765625 C-70.43279613 66.40084192 -70.45237114 68.20401903 -70.4727478 70.00718689 C-70.52384327 74.72690762 -70.56358916 79.4466567 -70.60089111 84.16650391 C-70.64107317 88.99323408 -70.69210038 93.81984862 -70.7421875 98.64648438 C-70.83867907 108.09758267 -70.92216489 117.54872963 -71 127 C-80.24 127 -89.48 127 -99 127 C-99 83.11 -99 39.22 -99 -6 C-89.76 -6 -80.52 -6 -71 -6 C-70.67 -2.04 -70.34 1.92 -70 6 C-68.4325 4.783125 -66.865 3.56625 -65.25 2.3125 C-46.69670734 -11.20695356 -19.58376224 -12.61856451 0 0 Z " fill="#211551" transform="translate(529,25)"/>
<path d="M0 0 C11.59398492 9.83970246 18.22867349 21.83266272 21.91015625 36.55859375 C21.91015625 46.12859375 21.91015625 55.69859375 21.91015625 65.55859375 C-11.41984375 65.55859375 -44.74984375 65.55859375 -79.08984375 65.55859375 C-75.69069692 79.15518107 -73.00779482 86.33619366 -62.08984375 94.55859375 C-59.08925305 96.47699234 -59.08925305 96.47699234 -56.08984375 97.55859375 C-55.09984375 97.95046875 -54.10984375 98.34234375 -53.08984375 98.74609375 C-41.50873432 101.70514374 -30.27742709 99.39966485 -20.12109375 93.39453125 C-17.91006526 91.73625988 -16.32464023 90.14440201 -15.2902832 87.5637207 C-14.1876011 84.93852936 -13.25421263 83.43624365 -11.08984375 81.55859375 C-5.97351659 80.52483927 -0.95449182 80.80555504 4.22265625 81.05859375 C5.64508274 81.09874876 7.0676175 81.13524611 8.49023438 81.16796875 C11.9658002 81.2558694 15.43729207 81.39374762 18.91015625 81.55859375 C14.02741255 97.42423815 4.62365149 108.43404742 -9.6796875 116.83203125 C-26.23159017 125.21226147 -47.57958552 126.25470767 -65.1796875 120.55859375 C-85.2712314 112.69780952 -96.30713504 99.73178182 -104.828125 80.30859375 C-107.73320827 71.67429054 -108.43291469 63.11982127 -108.40234375 54.05859375 C-108.41845703 53.10339844 -108.43457031 52.14820312 -108.45117188 51.1640625 C-108.45588387 44.19973037 -107.20711307 38.1748068 -105.08984375 31.55859375 C-104.785625 30.53765625 -104.48140625 29.51671875 -104.16796875 28.46484375 C-98.82706999 12.94600584 -88.39487375 0.72227788 -73.9296875 -7.078125 C-70.03922717 -8.94576001 -66.2771543 -10.40189909 -62.08984375 -11.44140625 C-61.331875 -11.64507813 -60.57390625 -11.84875 -59.79296875 -12.05859375 C-39.11580161 -16.7462745 -16.79703563 -13.27199402 0 0 Z " fill="#FDFCFD" transform="translate(120.08984375,30.44140625)"/>
<path d="M0 0 C3.54168424 2.8445023 6.73367227 5.82974073 10 9 C10.33 3.72 10.66 -1.56 11 -7 C20.57 -7 30.14 -7 40 -7 C40 36.89 40 80.78 40 126 C30.43 126 20.86 126 11 126 C10.67 120.72 10.34 115.44 10 110 C8.741875 111.19625 7.48375 112.3925 6.1875 113.625 C-8.10998822 126.24961518 -24.07012918 129.11178124 -42.58203125 128.18017578 C-47.38858333 127.82201388 -51.57346454 126.88287624 -56 125 C-56.97839844 124.58621094 -57.95679688 124.17242187 -58.96484375 123.74609375 C-75.64592368 116.02609837 -85.90795849 103.70486171 -93 87 C-99.37384271 68.50885193 -99.58652136 45.59506315 -91.28344727 27.72167969 C-82.816214 10.54317762 -70.98996248 -0.23305673 -53.13671875 -7.1015625 C-35.61503677 -12.40515507 -15.40144296 -9.66203124 0 0 Z M-60.84765625 32.3828125 C-68.08626463 43.44525578 -69.50237288 56.34521617 -67.49609375 69.23828125 C-64.83252269 81.21674079 -58.72399997 91.53835098 -48.3125 98.3125 C-38.14122239 103.95293576 -28.42079318 104.97510177 -17.21875 102.34765625 C-7.2834854 99.31963319 0.39623792 92.30591478 5.75 83.484375 C11.99554067 71.07136291 13.08563984 57.3458307 9.375 44 C5.214054 32.35805004 -2.30200764 23.46093874 -13.5 18 C-31.4437401 11.27109746 -49.27069661 17.45269542 -60.84765625 32.3828125 Z " fill="#211551" transform="translate(749,26)"/>
<path d="M0 0 C3.56671019 2.79499481 6.82340573 5.77133042 10 9 C10.57363281 9.57492188 11.14726562 10.14984375 11.73828125 10.7421875 C23.95001326 23.93212026 28.59971875 42.65573842 28.1875 60.2265625 C26.87985013 79.56888353 20.23813387 96.51247615 6 110 C-7.51066763 121.34535195 -23.90436749 126.60858104 -41.375 126.4375 C-42.46772217 126.42992676 -43.56044434 126.42235352 -44.6862793 126.41455078 C-53.07380487 126.24382186 -60.20040822 125.26423593 -68 122 C-69.56041016 121.36384766 -69.56041016 121.36384766 -71.15234375 120.71484375 C-78.62185343 117.33331289 -84.25915871 112.80095481 -90 107 C-90.62519531 106.40832031 -91.25039063 105.81664062 -91.89453125 105.20703125 C-105.10350477 91.69988677 -108.50917626 73.16552587 -108.42236328 55.02441406 C-107.93808678 34.78608759 -100.48351405 17.93316015 -85.875 3.8125 C-62.56825692 -15.9085903 -24.99300233 -16.71673875 0 0 Z M-71.0078125 27.51171875 C-80.04550154 40.76573552 -81.04416722 56.38173888 -78.30859375 71.9296875 C-75.27376556 82.72300952 -69.63418779 91.17085824 -60.12890625 97.18359375 C-51.27410202 102.0475003 -41.84471132 102.89657303 -32 101 C-20.38447689 97.61881887 -12.04731574 91.17336964 -6.21484375 80.55859375 C-0.11705837 67.71599109 0.53679334 52.98267405 -3.81640625 39.46484375 C-8.07392963 29.07933692 -15.2993055 21.03896576 -25.375 16.125 C-41.39879063 9.91251405 -60.14672349 13.92479223 -71.0078125 27.51171875 Z " fill="#211551" transform="translate(396,28)"/>
<path d="M0 0 C0.95132813 0.65935547 0.95132813 0.65935547 1.921875 1.33203125 C12.34069439 9.33054967 17.60518671 22.67148216 19.60076904 35.27185059 C20.44436264 43.14960383 20.24113232 51.07108756 20.1953125 58.984375 C20.19157498 60.89536388 20.18873151 62.8063547 20.18673706 64.71734619 C20.17915875 69.70838866 20.15956115 74.69931178 20.1373291 79.69030762 C20.11674459 84.79873033 20.10770858 89.90717263 20.09765625 95.015625 C20.07630891 105.01047711 20.04117514 115.00520989 20 125 C10.76 125 1.52 125 -8 125 C-8.029729 121.48883545 -8.029729 121.48883545 -8.06005859 117.90673828 C-8.1271843 110.14345138 -8.20481973 102.38029463 -8.28752708 94.61715889 C-8.33731774 89.91374748 -8.38364833 85.21035667 -8.421875 80.50683594 C-8.45894669 75.96149587 -8.50536388 71.41633576 -8.55806351 66.87115097 C-8.57649186 65.14339249 -8.59164171 63.4155956 -8.60334396 61.68777847 C-8.60285285 41.44061102 -8.60285285 41.44061102 -17.82421875 23.921875 C-26.04687953 16.23231403 -34.08199017 15.3654383 -44.93359375 15.7265625 C-53.30870444 16.1889802 -58.8535744 18.75224432 -64.984375 24.55078125 C-71.72064984 32.73613847 -73.12403266 42.76406295 -73.20532227 53.02490234 C-73.22017166 54.19664505 -73.22017166 54.19664505 -73.23532104 55.39205933 C-73.26673757 57.95665527 -73.2916144 60.52126969 -73.31640625 63.0859375 C-73.33699295 64.87098656 -73.35798986 66.65603093 -73.37937927 68.44107056 C-73.43442279 73.12632437 -73.48390981 77.81162088 -73.53222656 82.49694824 C-73.58257141 87.28316014 -73.63818954 92.06931047 -73.69335938 96.85546875 C-73.80072405 106.23692839 -73.90172904 115.61844069 -74 125 C-83.24 125 -92.48 125 -102 125 C-102 81.11 -102 37.22 -102 -8 C-92.76 -8 -83.52 -8 -74 -8 C-73.67 -3.71 -73.34 0.58 -73 5 C-71.1128125 3.1746875 -71.1128125 3.1746875 -69.1875 1.3125 C-50.54760843 -15.22052784 -19.62001119 -14.0092526 0 0 Z " fill="#211551" transform="translate(261,27)"/>
<path d="M0 0 C6.4819767 5.23871231 9.83946075 11.42072601 12.4453125 19.23828125 C12.4453125 21.54828125 12.4453125 23.85828125 12.4453125 26.23828125 C-11.6446875 26.23828125 -35.7346875 26.23828125 -60.5546875 26.23828125 C-58.90233618 14.67182203 -55.32673537 7.15417724 -46.5546875 -0.76171875 C-32.92131571 -10.39567353 -13.45886538 -9.28126649 0 0 Z " fill="#261B55" transform="translate(101.5546875,47.76171875)"/>
</svg>
