<?xml version="1.0" encoding="UTF-8"?>
<svg id="Layer_2" data-name="Layer 2" xmlns="http://www.w3.org/2000/svg" viewBox="0 0 617.2 167.54">
  <defs>
    <style>
      .cls-1 {
        fill: #fff;
      }
    </style>
  </defs>
  <g id="Layer_1-2" data-name="Layer 1">
    <path class="cls-1" d="M106.2,63.6H18.6c.67,10.8,4.37,19.23,11.1,25.3,6.73,6.07,14.9,9.1,24.5,9.1,7.87,0,14.43-1.83,19.7-5.5,5.27-3.67,8.97-8.57,11.1-14.7h19.6c-2.93,10.53-8.8,19.1-17.6,25.7-8.8,6.6-19.73,9.9-32.8,9.9-10.4,0-19.7-2.33-27.9-7-8.2-4.67-14.63-11.3-19.3-19.9C2.33,77.9,0,67.94,0,56.6s2.27-21.27,6.8-29.8c4.53-8.53,10.9-15.1,19.1-19.7S43.53.2,54.2.2s19.6,2.27,27.6,6.8c8,4.53,14.17,10.77,18.5,18.7,4.33,7.93,6.5,16.9,6.5,26.9,0,3.47-.2,7.13-.6,11ZM83.4,30.9c-3.07-5-7.23-8.8-12.5-11.4-5.27-2.6-11.1-3.9-17.5-3.9-9.2,0-17.03,2.93-23.5,8.8-6.47,5.87-10.17,14-11.1,24.4h69.2c0-6.93-1.54-12.9-4.6-17.9Z"/>
    <path class="cls-1" d="M196.6,12.1c8.27,8.07,12.4,19.7,12.4,34.9v64.6h-18v-62c0-10.93-2.73-19.3-8.2-25.1-5.47-5.8-12.93-8.7-22.4-8.7s-17.23,3-22.9,9c-5.67,6-8.5,14.73-8.5,26.2v60.6h-18.2V2h18.2v15.6c3.6-5.6,8.5-9.93,14.7-13,6.2-3.07,13.03-4.6,20.5-4.6,13.33,0,24.13,4.03,32.4,12.1Z"/>
    <path class="cls-1" d="M238.7,106.4c-8.33-4.67-14.87-11.3-19.6-19.9-4.73-8.6-7.1-18.57-7.1-29.9s2.43-21.1,7.3-29.7c4.87-8.6,11.5-15.2,19.9-19.8,8.4-4.6,17.8-6.9,28.2-6.9s19.8,2.3,28.2,6.9,15.03,11.17,19.9,19.7c4.87,8.53,7.3,18.47,7.3,29.8s-2.5,21.3-7.5,29.9c-5,8.6-11.77,15.23-20.3,19.9-8.54,4.67-18,7-28.4,7s-19.57-2.33-27.9-7ZM285,92.8c5.73-3.07,10.37-7.67,13.9-13.8,3.53-6.13,5.3-13.6,5.3-22.4s-1.73-16.27-5.2-22.4c-3.47-6.13-8-10.7-13.6-13.7-5.6-3-11.67-4.5-18.2-4.5s-12.77,1.5-18.3,4.5c-5.53,3-9.97,7.57-13.3,13.7-3.33,6.13-5,13.6-5,22.4s1.63,16.47,4.9,22.6c3.27,6.13,7.63,10.7,13.1,13.7,5.47,3,11.47,4.5,18,4.5s12.67-1.53,18.4-4.6Z"/>
    <path class="cls-1" d="M481.4,5.3c6.67,3.53,11.93,8.83,15.8,15.9,3.87,7.07,5.8,15.67,5.8,25.8v64.6h-18v-62c0-10.93-2.7-19.3-8.1-25.1-5.4-5.8-12.7-8.7-21.9-8.7s-17,3.03-22.6,9.1c-5.6,6.07-8.4,14.83-8.4,26.3v60.4h-18v-62c0-10.93-2.7-19.3-8.1-25.1-5.4-5.8-12.7-8.7-21.9-8.7s-17,3.03-22.6,9.1c-5.6,6.07-8.4,14.83-8.4,26.3v60.4h-18.2V2h18.2v15.8c3.6-5.73,8.43-10.13,14.5-13.2,6.07-3.07,12.77-4.6,20.1-4.6,9.2,0,17.33,2.07,24.4,6.2,7.07,4.13,12.33,10.2,15.8,18.2,3.07-7.73,8.13-13.73,15.2-18,7.07-4.27,14.93-6.4,23.6-6.4s16.13,1.77,22.8,5.3Z"/>
    <path class="cls-1" d="M512.8,26.9c4.53-8.47,10.77-15.03,18.7-19.7,7.93-4.67,16.77-7,26.5-7s17.93,2.07,25,6.2c7.07,4.13,12.33,9.33,15.8,15.6V2h18.4v109.6h-18.4v-20.4c-3.6,6.4-8.97,11.7-16.1,15.9-7.13,4.2-15.43,6.3-24.9,6.3s-18.53-2.4-26.4-7.2c-7.87-4.8-14.07-11.53-18.6-20.2-4.53-8.67-6.8-18.53-6.8-29.6s2.27-21.03,6.8-29.5ZM593.8,35c-3.33-6.13-7.83-10.83-13.5-14.1-5.67-3.27-11.9-4.9-18.7-4.9s-13,1.6-18.6,4.8c-5.6,3.2-10.07,7.87-13.4,14-3.33,6.13-5,13.33-5,21.6s1.67,15.7,5,21.9c3.33,6.2,7.8,10.93,13.4,14.2,5.6,3.27,11.8,4.9,18.6,4.9s13.03-1.63,18.7-4.9c5.67-3.27,10.17-8,13.5-14.2,3.33-6.2,5-13.43,5-21.7s-1.67-15.47-5-21.6Z"/>
    <path class="cls-1" d="M86.12,138.14l-7.95,15.19v9.21h-3.18v-9.21l-7.98-15.19h3.54l6.02,12.35,6.02-12.35h3.54Z"/>
    <path class="cls-1" d="M94.71,161.62c-1.46-.82-2.6-1.98-3.43-3.48s-1.24-3.25-1.24-5.23.43-3.69,1.28-5.2,2.01-2.66,3.48-3.46c1.47-.81,3.12-1.21,4.94-1.21s3.46.4,4.93,1.21c1.47.8,2.63,1.95,3.48,3.45s1.28,3.23,1.28,5.21-.44,3.73-1.31,5.23-2.06,2.67-3.55,3.48c-1.49.82-3.15,1.23-4.97,1.23s-3.42-.41-4.88-1.23ZM102.82,159.24c1-.54,1.81-1.34,2.43-2.42s.93-2.38.93-3.92-.3-2.85-.91-3.92-1.4-1.87-2.38-2.4c-.98-.53-2.04-.79-3.18-.79s-2.23.26-3.2.79c-.97.52-1.74,1.32-2.33,2.4-.58,1.07-.88,2.38-.88,3.92s.29,2.88.86,3.96c.57,1.07,1.34,1.87,2.29,2.4.96.53,2.01.79,3.15.79s2.22-.27,3.22-.8Z"/>
    <path class="cls-1" d="M132.39,143.35v19.18h-3.18v-2.83c-.61.98-1.45,1.74-2.54,2.29-1.08.55-2.28.82-3.59.82-1.49,0-2.83-.31-4.03-.93-1.19-.62-2.13-1.55-2.82-2.78-.69-1.24-1.03-2.74-1.03-4.52v-11.23h3.15v10.81c0,1.89.48,3.34,1.44,4.36.96,1.02,2.26,1.52,3.92,1.52s3.04-.52,4.02-1.57c.98-1.05,1.47-2.58,1.47-4.58v-10.54h3.18Z"/>
    <path class="cls-1" d="M145.11,143.91c1.04-.61,2.3-.91,3.8-.91v3.29h-.84c-3.57,0-5.35,1.94-5.35,5.81v10.43h-3.19v-19.18h3.19v3.11c.56-1.1,1.36-1.95,2.4-2.55Z"/>
    <path class="cls-1" d="M171.49,144.12c1.26-.72,2.69-1.08,4.3-1.08,1.73,0,3.28.41,4.66,1.23,1.38.82,2.46,1.97,3.25,3.45.79,1.48,1.19,3.2,1.19,5.16s-.4,3.66-1.19,5.18c-.79,1.52-1.88,2.7-3.27,3.54-1.39.84-2.93,1.26-4.64,1.26s-3.11-.36-4.36-1.08c-1.25-.72-2.19-1.65-2.82-2.77v3.54h-3.19v-25.9h3.19v10.29c.65-1.14,1.61-2.08,2.87-2.8ZM180.76,149.09c-.58-1.07-1.37-1.89-2.36-2.45-.99-.56-2.08-.84-3.27-.84s-2.25.29-3.24.86c-.99.57-1.79,1.4-2.38,2.48s-.89,2.34-.89,3.76.3,2.71.89,3.8,1.39,1.91,2.38,2.48c.99.57,2.07.86,3.24.86s2.28-.29,3.27-.86c.99-.57,1.78-1.4,2.36-2.48s.88-2.36.88-3.83-.29-2.71-.88-3.78Z"/>
    <path class="cls-1" d="M207.85,143.35v19.18h-3.19v-2.83c-.61.98-1.45,1.74-2.54,2.29-1.08.55-2.28.82-3.59.82-1.49,0-2.83-.31-4.02-.93-1.19-.62-2.13-1.55-2.82-2.78-.69-1.24-1.03-2.74-1.03-4.52v-11.23h3.15v10.81c0,1.89.48,3.34,1.43,4.36.96,1.02,2.26,1.52,3.92,1.52s3.04-.52,4.03-1.57c.98-1.05,1.47-2.58,1.47-4.58v-10.54h3.19Z"/>
    <path class="cls-1" d="M217.83,162.1c-1.17-.5-2.09-1.2-2.76-2.1-.68-.9-1.05-1.93-1.12-3.1h3.29c.09.96.54,1.74,1.35,2.34.8.61,1.86.91,3.17.91,1.21,0,2.17-.27,2.87-.8.7-.54,1.05-1.21,1.05-2.03s-.37-1.46-1.12-1.87c-.75-.41-1.9-.81-3.46-1.21-1.42-.37-2.58-.75-3.48-1.14s-1.67-.96-2.31-1.71c-.64-.76-.96-1.76-.96-2.99,0-.98.29-1.88.88-2.7.58-.82,1.41-1.46,2.49-1.94,1.07-.48,2.3-.72,3.67-.72,2.12,0,3.84.54,5.14,1.61s2.01,2.54,2.1,4.41h-3.19c-.07-1-.47-1.81-1.21-2.42-.74-.61-1.72-.91-2.96-.91-1.14,0-2.05.25-2.73.73-.68.49-1.02,1.13-1.02,1.93,0,.63.2,1.15.61,1.56.41.41.92.73,1.54.98.62.25,1.47.52,2.57.82,1.38.37,2.5.74,3.36,1.1.86.36,1.6.9,2.22,1.63s.94,1.67.96,2.83c0,1.05-.29,2-.88,2.83-.58.84-1.41,1.5-2.47,1.98-1.06.48-2.28.72-3.66.72-1.47,0-2.79-.25-3.96-.75Z"/>
    <path class="cls-1" d="M235.11,139.61c-.42-.42-.63-.93-.63-1.54s.21-1.12.63-1.54c.42-.42.93-.63,1.54-.63s1.08.21,1.49.63c.41.42.61.93.61,1.54s-.21,1.12-.61,1.54c-.41.42-.91.63-1.49.63s-1.12-.21-1.54-.63ZM238.19,143.35v19.18h-3.18v-19.18h3.18Z"/>
    <path class="cls-1" d="M260.38,145.12c1.45,1.41,2.17,3.45,2.17,6.11v11.3h-3.15v-10.85c0-1.91-.48-3.38-1.44-4.39-.96-1.02-2.26-1.52-3.92-1.52s-3.02.52-4.01,1.57c-.99,1.05-1.49,2.58-1.49,4.58v10.61h-3.18v-19.18h3.18v2.73c.63-.98,1.49-1.74,2.57-2.27s2.28-.81,3.59-.81c2.33,0,4.22.71,5.67,2.12Z"/>
    <path class="cls-1" d="M286.91,154.13h-15.33c.12,1.89.76,3.37,1.94,4.43,1.18,1.06,2.61,1.59,4.29,1.59,1.38,0,2.53-.32,3.45-.96.92-.64,1.57-1.5,1.94-2.57h3.43c-.51,1.84-1.54,3.34-3.08,4.5-1.54,1.16-3.45,1.73-5.74,1.73-1.82,0-3.45-.41-4.88-1.23-1.43-.82-2.56-1.98-3.38-3.48-.82-1.5-1.23-3.25-1.23-5.23s.4-3.72,1.19-5.21c.79-1.49,1.91-2.64,3.34-3.45,1.43-.81,3.08-1.21,4.95-1.21s3.43.4,4.83,1.19,2.48,1.88,3.24,3.27c.76,1.39,1.14,2.96,1.14,4.71,0,.61-.04,1.25-.11,1.92ZM282.92,148.41c-.54-.88-1.27-1.54-2.19-2-.92-.46-1.94-.68-3.06-.68-1.61,0-2.98.51-4.11,1.54s-1.78,2.45-1.94,4.27h12.11c0-1.21-.27-2.26-.8-3.13Z"/>
    <path class="cls-1" d="M295.8,162.1c-1.17-.5-2.09-1.2-2.76-2.1s-1.05-1.93-1.12-3.1h3.29c.09.96.54,1.74,1.35,2.34.8.61,1.86.91,3.17.91,1.21,0,2.17-.27,2.87-.8.7-.54,1.05-1.21,1.05-2.03s-.37-1.46-1.12-1.87c-.75-.41-1.9-.81-3.46-1.21-1.42-.37-2.58-.75-3.48-1.14-.9-.38-1.67-.96-2.31-1.71-.64-.76-.96-1.76-.96-2.99,0-.98.29-1.88.88-2.7.58-.82,1.41-1.46,2.49-1.94s2.3-.72,3.67-.72c2.12,0,3.84.54,5.15,1.61,1.31,1.07,2.01,2.54,2.1,4.41h-3.18c-.07-1-.47-1.81-1.21-2.42-.73-.61-1.72-.91-2.96-.91-1.14,0-2.05.25-2.73.73-.68.49-1.01,1.13-1.01,1.93,0,.63.2,1.15.61,1.56s.92.73,1.54.98,1.48.52,2.57.82c1.38.37,2.5.74,3.36,1.1.86.36,1.6.9,2.22,1.63.62.72.94,1.67.96,2.83,0,1.05-.29,2-.88,2.83s-1.41,1.5-2.47,1.98c-1.06.48-2.28.72-3.66.72-1.47,0-2.79-.25-3.96-.75Z"/>
    <path class="cls-1" d="M315.82,162.1c-1.17-.5-2.09-1.2-2.76-2.1s-1.05-1.93-1.12-3.1h3.29c.09.96.54,1.74,1.35,2.34.8.61,1.86.91,3.17.91,1.21,0,2.17-.27,2.87-.8.7-.54,1.05-1.21,1.05-2.03s-.37-1.46-1.12-1.87c-.75-.41-1.9-.81-3.46-1.21-1.42-.37-2.58-.75-3.48-1.14-.9-.38-1.67-.96-2.31-1.71-.64-.76-.96-1.76-.96-2.99,0-.98.29-1.88.88-2.7.58-.82,1.41-1.46,2.49-1.94s2.3-.72,3.67-.72c2.12,0,3.84.54,5.15,1.61,1.31,1.07,2.01,2.54,2.1,4.41h-3.18c-.07-1-.47-1.81-1.21-2.42-.73-.61-1.72-.91-2.96-.91-1.14,0-2.05.25-2.73.73-.68.49-1.01,1.13-1.01,1.93,0,.63.2,1.15.61,1.56s.92.73,1.54.98,1.48.52,2.57.82c1.38.37,2.5.74,3.36,1.1.86.36,1.6.9,2.22,1.63.62.72.94,1.67.96,2.83,0,1.05-.29,2-.88,2.83s-1.41,1.5-2.47,1.98c-1.06.48-2.28.72-3.66.72-1.47,0-2.79-.25-3.96-.75Z"/>
    <path class="cls-1" d="M336.3,158.12l-3.92,9.42h-2.13l2.55-9.42h3.5Z"/>
    <path class="cls-1" d="M356.27,161.62c-1.46-.82-2.6-1.98-3.43-3.48-.83-1.5-1.24-3.25-1.24-5.23s.43-3.69,1.28-5.2c.85-1.5,2.01-2.66,3.48-3.46,1.47-.81,3.11-1.21,4.93-1.21s3.46.4,4.93,1.21c1.47.8,2.63,1.95,3.48,3.45.85,1.49,1.28,3.23,1.28,5.21s-.44,3.73-1.31,5.23-2.06,2.67-3.55,3.48c-1.49.82-3.15,1.23-4.97,1.23s-3.42-.41-4.88-1.23ZM364.37,159.24c1-.54,1.81-1.34,2.43-2.42.62-1.07.93-2.38.93-3.92s-.3-2.85-.91-3.92c-.61-1.07-1.4-1.87-2.38-2.4-.98-.53-2.04-.79-3.19-.79s-2.23.26-3.2.79c-.97.52-1.75,1.32-2.33,2.4s-.88,2.38-.88,3.92.29,2.88.86,3.96c.57,1.07,1.33,1.87,2.29,2.4s2.01.79,3.15.79,2.22-.27,3.22-.8Z"/>
    <path class="cls-1" d="M391.95,145.12c1.45,1.41,2.17,3.45,2.17,6.11v11.3h-3.15v-10.85c0-1.91-.48-3.38-1.44-4.39-.96-1.02-2.26-1.52-3.92-1.52s-3.02.52-4.01,1.57c-.99,1.05-1.49,2.58-1.49,4.58v10.61h-3.19v-19.18h3.19v2.73c.63-.98,1.49-1.74,2.57-2.27s2.28-.81,3.59-.81c2.33,0,4.22.71,5.67,2.12Z"/>
    <path class="cls-1" d="M404.27,136.63v25.9h-3.18v-25.9h3.18Z"/>
    <path class="cls-1" d="M411.55,139.61c-.42-.42-.63-.93-.63-1.54s.21-1.12.63-1.54.93-.63,1.54-.63,1.08.21,1.49.63.61.93.61,1.54-.21,1.12-.61,1.54-.9.63-1.49.63-1.12-.21-1.54-.63ZM414.63,143.35v19.18h-3.18v-19.18h3.18Z"/>
    <path class="cls-1" d="M436.82,145.12c1.45,1.41,2.17,3.45,2.17,6.11v11.3h-3.15v-10.85c0-1.91-.48-3.38-1.44-4.39-.96-1.02-2.26-1.52-3.92-1.52s-3.02.52-4.01,1.57c-.99,1.05-1.49,2.58-1.49,4.58v10.61h-3.18v-19.18h3.18v2.73c.63-.98,1.49-1.74,2.57-2.27s2.28-.81,3.59-.81c2.33,0,4.22.71,5.67,2.12Z"/>
    <path class="cls-1" d="M463.35,154.13h-15.33c.12,1.89.76,3.37,1.94,4.43,1.18,1.06,2.61,1.59,4.29,1.59,1.38,0,2.53-.32,3.45-.96.92-.64,1.57-1.5,1.94-2.57h3.43c-.51,1.84-1.54,3.34-3.08,4.5-1.54,1.16-3.45,1.73-5.74,1.73-1.82,0-3.45-.41-4.88-1.23-1.43-.82-2.56-1.98-3.38-3.48-.82-1.5-1.23-3.25-1.23-5.23s.4-3.72,1.19-5.21c.79-1.49,1.91-2.64,3.34-3.45,1.44-.81,3.09-1.21,4.95-1.21s3.43.4,4.83,1.19c1.4.79,2.48,1.88,3.24,3.27.76,1.39,1.14,2.96,1.14,4.71,0,.61-.04,1.25-.11,1.92ZM459.36,148.41c-.54-.88-1.27-1.54-2.19-2s-1.94-.68-3.06-.68c-1.61,0-2.98.51-4.11,1.54s-1.78,2.45-1.94,4.27h12.11c0-1.21-.27-2.26-.81-3.13Z"/>
    <path class="cls-1" d="M468.88,162.11c-.42-.42-.63-.93-.63-1.54s.21-1.12.63-1.54.93-.63,1.54-.63,1.08.21,1.49.63.61.93.61,1.54-.2,1.12-.61,1.54-.9.63-1.49.63-1.12-.21-1.54-.63Z"/>
  </g>
</svg>